Patient5_TMGait_0pt45_1_left_13_GRF.mot
version=1
nRows=39
nColumns=19
inDegrees=no
endheader
time	F1x	F1y	F1z	M1x	M1y	M1z	F2x	F2y	F2z	M2x	M2y	M2z	EC1x	EC1y	EC1z	EC2x	EC2y	EC2z
20.18	60.1434	215.5029	-5.5065	-75.9615	24.2972	191.3826	-9.5443	566.9897	-23.6751	213.4509	32.5374	631.18	-0.0592	0.0182	-0.0073	-0.0462	0.0165	0.9585
20.1975	44.2673	180.9926	-5.4412	-63.5615	19.4285	160.3972	-16.252	617.1602	-31.5981	233.3278	42.2235	672.1386	-0.0592	0.0182	-0.0073	-0.0462	0.0165	0.9585
20.215	28.6606	142.5476	-5.1833	-49.8938	14.2998	126.2287	-17.7117	676.5889	-39.158	256.7932	49.57	722.3139	-0.0592	0.0182	-0.0073	-0.0462	0.0165	0.9585
20.2325	15.1289	105.3223	-4.63	-36.7634	9.4292	93.353	-13.6151	739.3246	-46.1269	281.4414	54.2339	776.0783	-0.0592	0.0182	-0.0073	-0.0462	0.0165	0.9585
20.25	4.7887	72.9751	-3.8206	-25.4228	5.2736	64.9072	-5.2472	799.3356	-52.8059	304.8152	56.978	827.4539	-0.0592	0.0182	-0.0073	-0.0462	0.0165	0.9585
20.2675	-1.8909	47.0121	-2.8504	-16.3668	2.1326	42.1541	5.0453	851.3556	-59.6459	324.7794	59.1131	871.2625	-0.0592	0.0182	-0.0073	-0.0462	0.0165	0.9585
20.285	-4.9713	27.5286	-1.8485	-9.5954	0.14999	25.1216	14.5353	891.1498	-66.6375	339.6889	61.6533	903.436	-0.0592	0.0182	-0.0073	-0.0462	0.0165	0.9585
20.3025	-5.0939	14.0938	-0.97217	-4.9414	-0.71671	13.39	21.227	915.7471	-73.196	348.492	64.7925	921.1814	-0.0592	0.0182	-0.0073	-0.0462	0.0165	0.9585
20.32	-3.6859	6.1184	-0.36401	-2.1878	-0.80726	6.4355	24.7191	924.1174	-78.4881	350.9342	67.8871	923.5267	-0.0592	0.0182	-0.0073	-0.0462	0.0165	0.9585
20.3375	-1.9127	2.3436	-0.0036126	-0.88995	-0.53884	3.1833	25.9727	917.647	-81.9957	347.6573	70.0767	911.7758	-0.0592	0.0182	-0.0073	-0.0462	0.0165	0.9585
20.355	-0.36557	1.2149	0.17242	-0.506	-0.17925	2.265	26.3404	899.8999	-83.7505	340.0752	70.8868	889.3491	-0.0592	0.0182	-0.0073	-0.0462	0.0165	0.9585
20.3725	0.75086	1.333	0.24866	-0.54814	0.11885	2.3986	26.9503	875.7938	-84.0956	330.0893	70.2401	860.967	-0.0592	0.0182	-0.0073	-0.0462	0.0165	0.9585
20.39	1.4512	1.6105	0.31373	-0.63491	0.27319	2.5464	28.5904	850.455	-83.4288	319.6902	68.2435	831.4659	-0.0592	0.0182	-0.0073	-0.0462	0.0165	0.9585
20.4075	1.8401	1.2657	0.42227	-0.48541	0.26117	1.9367	31.6392	828.3391	-82.1619	310.6202	65.1768	804.9777	-0.0592	0.0182	-0.0073	-0.0462	0.0165	0.9585
20.425	2.0315	-0.19808	0.59759	0.081681	0.095152	0.039957	35.993	812.658	-80.7099	304.1301	61.5059	784.4542	-0.0592	0.0182	-0.0073	-0.0462	0.0165	0.9585
20.4425	2.1021	-2.9681	0.82583	1.1279	-0.18953	-3.371	41.1958	805.0001	-79.4096	300.824	57.7469	771.3409	-0.0592	0.0182	-0.0073	-0.0462	0.0165	0.9585
20.46	2.058	-6.7631	1.0309	2.5344	-0.50545	-7.9863	46.6376	805.3339	-78.4462	300.6604	54.3241	765.5938	-0.0592	0.0182	-0.0073	-0.0462	0.0165	0.9585
20.4775	1.8305	-10.506	1.0343	3.8906	-0.66173	-12.5391	51.7402	812.2204	-77.8544	303.0391	51.4973	765.9167	-0.0592	0.0182	-0.0073	-0.0462	0.0165	0.9585
20.495	1.2888	-11.936	0.5596	4.3411	-0.35335	-14.3433	56.0541	822.9942	-77.539	306.8784	49.3452	769.9522	-0.0592	0.0182	-0.0073	-0.0462	0.0165	0.9585
20.5125	0.26991	-7.1983	-0.7586	2.4394	0.83863	-8.8375	59.2023	833.9467	-77.3516	310.6957	47.8579	774.4782	-0.0592	0.0182	-0.0073	-0.0462	0.0165	0.9585
20.53	-1.3456	9.252	-3.316	-3.8793	3.4027	10.5454	60.7765	840.6021	-77.0942	312.7295	46.9935	775.6627	-0.0592	0.0182	-0.0073	-0.0462	0.0165	0.9585
20.5475	-3.5012	43.9948	-7.3787	-17.0395	7.7474	51.6269	60.379	838.1008	-76.4678	311.1165	46.6206	769.3348	-0.0592	0.0182	-0.0073	-0.0462	0.0165	0.9585
20.565	-5.7891	102.633	-12.8009	-39.0517	13.9081	121.1177	57.6986	821.9116	-75.0481	304.193	46.464	751.5776	-0.0592	0.0182	-0.0073	-0.0462	0.0165	0.9585
20.5825	-7.4031	185.9524	-18.5523	-70.0562	20.9735	220.0268	52.5755	788.8799	-72.3351	290.8928	46.1217	719.6413	-0.0592	0.0182	-0.0073	-0.0462	0.0165	0.9585
20.6	-9.1964	285.7512	-22.0457	-106.7666	25.4918	338.605	45.1313	738.1628	-67.9237	271.0672	45.1702	672.7545	-0.0592	0.0182	-0.0073	-0.0462	0.0165	0.9585
20.6175	-15.036	384.9796	-19.2129	-142.6236	21.1682	456.7263	35.9831	671.6321	-61.6401	245.5896	43.212	612.4127	-0.0592	0.0182	-0.0073	-0.0462	0.0165	0.9585
20.635	-24.904	470.0002	-8.6227	-172.5069	6.1791	558.2344	26.2424	593.5461	-53.623	216.1749	39.9493	542.0929	-0.0592	0.0182	-0.0073	-0.0462	0.0165	0.9585
20.6525	-36.6296	538.5357	6.8751	-195.7478	-15.3177	640.049	17.1455	509.3957	-44.4284	184.9074	35.3909	466.3634	-0.0592	0.0182	-0.0073	-0.0462	0.0165	0.9585
20.67	-47.683	594.0134	22.4751	-213.9705	-36.6643	705.7508	9.5567	424.223	-34.9088	153.6113	29.92	389.5092	-0.0592	0.0182	-0.0073	-0.0462	0.0165	0.9585
20.6875	-55.7522	639.2881	34.3696	-228.5938	-52.4974	758.3115	3.6973	342.1118	-25.9596	123.6882	24.2012	315.1624	-0.0592	0.0182	-0.0073	-0.0462	0.0165	0.9585
20.705	-59.7021	675.5405	41.2772	-240.2427	-60.9153	798.8693	-0.68903	266.72	-18.3083	96.3569	18.9499	246.7005	-0.0592	0.0182	-0.0073	-0.0462	0.0165	0.9585
20.7225	-59.6591	703.9095	44.3614	-249.29	-63.4117	828.8315	-3.972	201.208	-12.4185	72.6674	14.7206	187.0587	-0.0592	0.0182	-0.0073	-0.0462	0.0165	0.9585
20.74	-56.8365	726.3111	45.8867	-256.261	-63.1549	850.839	-6.3872	147.5985	-8.46	53.2893	11.7888	138.0953	-0.0592	0.0182	-0.0073	-0.0462	0.0165	0.9585
20.7575	-52.9048	745.57	47.6232	-262.0239	-62.8526	868.7052	-8.1032	106.3118	-6.2946	38.346	10.1465	100.1946	-0.0592	0.0182	-0.0073	-0.0462	0.0165	0.9585
20.775	-49.1646	764.2789	49.9948	-267.475	-63.4774	885.8195	-9.301	76.2101	-5.517	27.4293	9.5467	72.3379	-0.0592	0.0182	-0.0073	-0.0462	0.0165	0.9585
20.7925	-46.1158	783.4522	52.3073	-273.0594	-64.4184	903.4993	-10.1419	55.1301	-5.5946	19.7737	9.6099	52.6196	-0.0592	0.0182	-0.0073	-0.0462	0.0165	0.9585
20.81	-43.6151	802.2806	53.6211	-278.6195	-64.5567	920.7631	-10.6996	40.549	-5.9959	14.4819	9.9129	38.8081	-0.0592	0.0182	-0.0073	-0.0462	0.0165	0.9585
20.8275	-41.2713	818.9037	53.5132	-283.5958	-63.2726	935.3955	-10.896	30.1525	-6.2869	10.7244	10.0473	28.8456	-0.0592	0.0182	-0.0073	-0.0462	0.0165	0.9585
20.845	-38.7265	831.5738	52.2463	-287.3977	-60.7428	945.3597	-10.5106	22.1838	-6.1638	7.8668	9.6491	21.1647	-0.0592	0.0182	-0.0073	-0.0462	0.0165	0.9585
